<svg version="1.1" xmlns="http://www.w3.org/2000/svg" style="display: block;" viewBox="0 0 2048 2048" width="1024" height="1024" preserveAspectRatio="none">
<path transform="translate(0,0)" fill="rgb(0,46,62)" d="M 1023.54 572.971 C 1052.09 563.303 1081.34 553.315 1111.55 547.333 C 1200.35 529.753 1292.1 538.543 1377.18 568.862 C 1386.5 572.185 1417.02 587.344 1426.05 591.885 C 1539.58 649.015 1622.65 750.869 1663.1 870.12 C 1705.09 995.341 1695.6 1132.11 1636.72 1250.34 C 1529.37 1466.94 1271.86 1575.82 1043.38 1491.03 C 1033.79 1487.47 1024.28 1483.03 1014.64 1479.77 C 975.183 1517.44 850.549 1523.46 798.945 1518.33 C 668.41 1505.36 548.3 1439.25 466.945 1336.9 C 385.389 1235.38 347.433 1105.66 361.407 976.188 C 377.093 840.939 439.291 724.467 547.076 639.642 C 622.054 580.894 712.969 546.058 808.006 539.663 C 873.248 535.334 943.992 544.922 1005.09 567.364 C 1009.95 569.149 1018.59 572.589 1023.54 572.971 z M 1026.46 1282.72 C 1036.07 1275 1044.87 1265.02 1054.03 1257.2 C 1105.54 1213.26 1142.11 1152.53 1157.05 1086.52 C 1161.08 1068.72 1159.44 1055.88 1160.6 1038.16 C 1166.97 940.855 1117.76 847.771 1042.58 788.268 C 1037.95 784.607 1027.95 777.38 1022.32 776.158 L 1021.5 776.937 C 1005.27 791.962 987.678 802.569 971.053 819.512 C 861.798 930.853 857.226 1111.94 961.929 1227.79 C 971.014 1237.85 1015.04 1280.49 1026.46 1282.72 z M 825.341 728.245 C 765.376 726.196 683.812 769.464 640.089 810.571 C 582.115 864.513 548.254 939.494 546.121 1018.65 C 543.81 1107.5 574.662 1177.49 635.844 1241.72 C 679.74 1287.81 764.316 1328.22 828.021 1330.21 C 826.969 1326.78 819.422 1316.61 817.051 1313.14 C 787.535 1269.98 763.311 1222.05 748.259 1171.71 C 711.849 1049.89 722.874 918.798 779.12 804.764 C 786.641 789.345 795.163 774.434 804.632 760.128 C 811.093 750.34 820.11 738.36 825.341 728.245 z M 1222.71 1329.58 C 1223.43 1329.56 1224.15 1329.55 1224.88 1329.53 C 1299.34 1323.12 1372.75 1284.86 1422.19 1229.79 C 1467.27 1179.59 1495.61 1119.75 1500.54 1052.66 C 1501.63 1037.8 1502.99 1025.46 1501.78 1010.33 C 1495.08 926.129 1457.79 853.904 1393.84 799.222 C 1357.68 768.304 1313.59 746.54 1267.59 735.504 C 1250.65 731.442 1239.88 728 1222.03 729.246 L 1222.66 730.41 C 1234.02 750.995 1249.54 769.345 1260.68 790.528 C 1299.19 863.817 1320.99 945.564 1318.86 1028.6 C 1318.4 1046.85 1319.48 1065.89 1317.71 1084.2 C 1315.41 1109.63 1307.98 1139.26 1301 1164.02 C 1288.97 1207.81 1270.57 1249.59 1246.39 1288.02 C 1242.74 1293.85 1221.26 1324.45 1221.82 1328.42 L 1222.71 1329.58 z"/>
<path transform="translate(0,0)" fill="rgb(25,155,143)" d="M 1023.09 890.642 C 1024.91 891.381 1025.49 891.758 1026.91 893.187 C 1065.32 931.672 1103.7 970.154 1142.46 1008.28 C 1146.01 1011.77 1156.25 1020.97 1156.44 1025.35 C 1150.2 1036.55 1117.7 1066.78 1106.74 1077.7 C 1079.84 1104.5 1052.37 1133.11 1024.79 1159.11 C 1017.33 1156.17 899.998 1038.35 890.208 1026.42 C 894.081 1019.44 908.905 1004.2 915.019 997.719 C 940.497 970.702 968.243 945.267 994.039 918.614 C 1002.32 910.062 1015.97 898.742 1023.09 890.642 z"/>
<path transform="translate(0,0)" fill="rgb(250,242,215)" d="M 1014.64 1479.77 C 975.183 1517.44 850.549 1523.46 798.945 1518.33 C 668.41 1505.36 548.3 1439.25 466.945 1336.9 C 385.389 1235.38 347.433 1105.66 361.407 976.188 C 377.093 840.939 439.291 724.467 547.076 639.642 C 622.054 580.894 712.969 546.058 808.006 539.663 C 873.248 535.334 943.992 544.922 1005.09 567.364 C 1009.95 569.149 1018.59 572.589 1023.54 572.971 L 1024.34 573.426 C 1035.33 579.576 1047.5 584.294 1058.68 590.152 C 1119.85 622.199 1182.21 672.278 1222.03 729.246 L 1222.66 730.41 C 1234.02 750.995 1249.54 769.345 1260.68 790.528 C 1299.19 863.817 1320.99 945.564 1318.86 1028.6 C 1318.4 1046.85 1319.48 1065.89 1317.71 1084.2 C 1315.41 1109.63 1307.98 1139.26 1301 1164.02 C 1288.97 1207.81 1270.57 1249.59 1246.39 1288.02 C 1242.74 1293.85 1221.26 1324.45 1221.82 1328.42 L 1222.71 1329.58 C 1217.89 1330.91 1196.76 1331.04 1190.99 1330.95 C 1125.35 1330.01 1082.24 1314.28 1026.46 1282.72 C 1036.07 1275 1044.87 1265.02 1054.03 1257.2 C 1105.54 1213.26 1142.11 1152.53 1157.05 1086.52 C 1161.08 1068.72 1159.44 1055.88 1160.6 1038.16 C 1166.97 940.855 1117.76 847.771 1042.58 788.268 C 1037.95 784.607 1027.95 777.38 1022.32 776.158 C 1015.68 774.075 992.274 759.684 982.542 755.333 C 929.373 731.563 883.155 724.171 825.341 728.245 C 765.376 726.196 683.812 769.464 640.089 810.571 C 582.115 864.513 548.254 939.494 546.121 1018.65 C 543.81 1107.5 574.662 1177.49 635.844 1241.72 C 679.74 1287.81 764.316 1328.22 828.021 1330.21 L 828.814 1331.03 C 836.103 1338.63 842.536 1347.58 849.392 1355.65 C 895.179 1409.48 950.935 1449.69 1014.64 1479.77 z"/>
</svg>