<svg version="1.1" xmlns="http://www.w3.org/2000/svg" style="display: block;" viewBox="0 0 2048 2048" width="1024" height="1024" preserveAspectRatio="none">
<path transform="translate(0,0)" fill="rgb(32,45,56)" d="M 1026.57 309.668 C 1040.04 307.607 1066.8 311.301 1080.86 312.815 C 1173.92 322.837 1259.57 355.333 1335.18 410.856 C 1445.02 492.619 1518.23 614.35 1538.98 749.697 C 1561.2 886.407 1527.01 1026.28 1444.22 1137.32 C 1361.41 1250.41 1236.66 1325.5 1097.96 1345.73 C 1065.94 1350.55 1033.85 1353.27 1001.58 1349.11 C 997.575 1348.59 984.733 1345.49 983.053 1347.48 C 980.867 1347.78 973.992 1348.71 972.005 1348.52 C 844.934 1336.37 721.283 1271.96 635.841 1177.38 C 571.582 1106.82 528.462 1019.61 511.407 925.713 C 476.54 729.165 549.969 536.896 708.557 414.865 C 789.285 353.827 885.947 317.449 986.887 310.119 C 998.507 309.199 1014.2 310.052 1026.57 309.668 z"/>
<path transform="translate(0,0)" fill="rgb(235,230,207)" d="M 1026.57 309.668 C 1055.86 308.614 1092.97 324.537 1116.97 340.306 C 1203.54 397.169 1250.3 501.335 1253.95 602.721 C 1257.46 684.063 1232.69 764.111 1183.86 829.258 C 1167.8 815.515 1146.87 793.361 1131.53 778.035 L 1023.97 670.1 C 1018.2 675.523 1012.88 681.167 1007.37 686.828 C 960.456 735.041 910.83 781.535 864.414 830.13 C 854.304 841.146 845.324 856.852 837.93 869.917 C 753.694 1018.75 788.651 1248.5 948.538 1332.5 C 955.138 1335.97 980.687 1344.02 983.053 1347.48 C 980.867 1347.78 973.992 1348.71 972.005 1348.52 C 844.934 1336.37 721.283 1271.96 635.841 1177.38 C 571.582 1106.82 528.462 1019.61 511.407 925.713 C 476.54 729.165 549.969 536.896 708.557 414.865 C 789.285 353.827 885.947 317.449 986.887 310.119 C 998.507 309.199 1014.2 310.052 1026.57 309.668 z"/>
<path transform="translate(0,0)" fill="rgb(254,254,254)" d="M 864.414 830.13 C 910.83 781.535 960.456 735.041 1007.37 686.828 C 1012.88 681.167 1018.2 675.523 1023.97 670.1 L 1131.53 778.035 C 1146.87 793.361 1167.8 815.515 1183.86 829.258 C 1173.49 840.685 1161.54 852.487 1150.44 863.269 C 1107.64 904.811 1066.73 948.964 1023.94 990.422 L 864.414 830.13 z"/>
<path transform="translate(0,0)" fill="rgb(0,177,155)" d="M 1023.82 739.671 C 1027.33 742.09 1039.48 754.487 1042.69 758.09 C 1064.26 782.305 1093.53 805.781 1113.96 830.6 C 1083.83 860.61 1053.92 890.842 1024.24 921.294 C 1020.91 918.611 1016.45 913.718 1013.42 910.536 C 987.54 883.331 959.569 857.484 934.344 829.725 C 962.85 799.827 994.498 769.081 1023.82 739.671 z"/>
<path transform="translate(0,0)" fill="rgb(32,45,56)" d="M 1530.26 1530.36 C 1550.2 1528.45 1568.8 1530.05 1586.87 1539.16 C 1598.01 1544.77 1604.55 1553.27 1612.22 1562.68 C 1640.06 1524.34 1711.7 1517.12 1745.35 1551.75 C 1773.59 1580.81 1767.21 1615.73 1767.92 1652.44 C 1768.51 1683.17 1768.41 1713.27 1767.97 1744.03 C 1749.8 1742.88 1727.77 1743.85 1709.03 1743.68 L 1709.52 1657.32 C 1709.44 1631.17 1714.47 1590.15 1681.54 1582.7 C 1665.81 1579.15 1651.01 1580.12 1639.2 1592.41 C 1633.8 1598.09 1629.99 1605.08 1628.13 1612.68 C 1624.57 1627.25 1625.59 1690.68 1625.99 1706.25 C 1626.54 1717.52 1625.51 1731.92 1625.77 1744.04 C 1610.39 1743.59 1596.33 1744.37 1581 1744.87 C 1576.97 1745 1570.61 1744.22 1565.66 1744.21 C 1566.92 1711.82 1566.21 1678.3 1564.28 1645.97 C 1563.21 1628.08 1567.96 1606.07 1554.83 1591.41 C 1547.24 1582.94 1541.05 1582.02 1530.59 1581.16 C 1490.22 1577.84 1480.37 1614.91 1483.11 1647.24 C 1484.53 1679.28 1482.92 1712.34 1482.1 1743.97 C 1462.41 1743.68 1442.73 1743.67 1423.05 1743.93 C 1421 1693.84 1423.96 1641.76 1422.56 1591.43 C 1422.07 1573.74 1421.52 1550.19 1423.02 1532.96 C 1439.6 1533.87 1461.56 1533.07 1478.67 1532.92 C 1478.53 1541.78 1478.77 1549.47 1479.17 1558.33 C 1496.42 1541.93 1506.7 1534.42 1530.26 1530.36 z"/>
<path transform="translate(0,0)" fill="rgb(32,45,56)" d="M 925.897 1484.45 C 936.274 1483.61 957.225 1484.6 968.017 1484.82 C 968.125 1501.99 967.873 1520.99 969.032 1537.97 C 992.93 1538.01 1018.66 1538.46 1042.38 1537.72 C 1042 1533.68 1041.8 1529.77 1042.4 1525.74 C 1044.42 1512.27 1044.24 1498.68 1044.14 1485.1 C 1063.7 1484.93 1083.27 1484.89 1102.84 1484.97 C 1103.12 1502.63 1103.16 1520.28 1102.96 1537.94 C 1118.91 1538.02 1140.01 1539.06 1155.01 1535.65 C 1155.34 1551.48 1155.38 1567.32 1155.15 1583.15 C 1139.79 1582.95 1117.9 1582.74 1102.99 1584.07 C 1103.34 1611.63 1102.56 1639.67 1103.12 1667.27 C 1103.48 1685.09 1105.7 1686.74 1117.23 1697.71 C 1135.8 1700.33 1138.73 1701.03 1153.61 1690.09 C 1156.47 1696.38 1169.59 1730.05 1168.05 1734.81 C 1165.29 1738.51 1162.25 1739.61 1157.67 1740.99 C 1131.72 1748.71 1103.42 1750.73 1078.4 1739 C 1067.56 1733.92 1039.69 1702.17 1046.24 1692.17 C 1045.51 1690.29 1042.08 1685.25 1042.06 1684.97 C 1042.17 1674.55 1039.39 1659.01 1041.1 1649 C 1044.89 1626.76 1044.09 1606.24 1044.09 1583.73 C 1018.89 1583.55 993.687 1583.72 968.492 1584.22 C 967.277 1607.93 969.585 1634.23 968.282 1657.46 C 966.216 1694.28 988.251 1713.09 1019.91 1691.52 C 1023.18 1700.33 1031.82 1723.7 1033.16 1731.86 C 1029.74 1742.52 1006.35 1745.41 996.654 1746.61 C 961.843 1750.92 923.392 1737.44 912.724 1700.86 C 908.32 1685.76 910.518 1669.04 910.057 1653.51 C 909.77 1630.08 911.032 1606.62 908.952 1583.17 C 898.067 1583.25 887.181 1583.15 876.299 1582.84 C 876.139 1571.64 876.013 1560.4 875.038 1549.24 C 873.344 1529.84 896.097 1534.9 908.147 1536.4 C 908.079 1519.21 907.177 1502.79 908.541 1485.58 C 913.864 1485.03 920.458 1484.79 925.897 1484.45 z"/>
<path transform="translate(0,0)" fill="rgb(32,45,56)" d="M 1266.85 1530.24 C 1284.07 1529.76 1298.14 1528.86 1315.09 1532.83 C 1341.72 1538.93 1364.76 1555.54 1378.97 1578.88 C 1389.05 1595.53 1399.39 1634.09 1394.57 1653.35 C 1389.2 1657.6 1248.72 1657.71 1235.09 1656.18 L 1233.89 1656.03 L 1233.16 1656.84 C 1235.69 1663.57 1238.25 1670.03 1242.71 1675.83 C 1260.61 1699.13 1296.31 1705.08 1322.71 1694.46 C 1332.39 1690.56 1340.3 1684.23 1348.44 1677.95 C 1354.84 1686 1373.7 1701.26 1376.38 1709.44 C 1376.21 1724.44 1343.97 1739.18 1331.13 1742.5 C 1258.5 1761.23 1176.89 1726.76 1175.05 1643.66 C 1173.59 1577.52 1205.55 1545.74 1266.85 1530.24 z M 1300.2 1619.88 L 1337.18 1619.96 C 1334.16 1605.64 1328.3 1592.57 1315.68 1583.75 C 1301.11 1573.58 1289.9 1578.27 1274.42 1576.91 C 1274.17 1576.97 1273.91 1577.02 1273.66 1577.08 C 1255.5 1580.78 1236.12 1595.57 1234.89 1615.23 L 1235.94 1617.68 C 1253.04 1618.74 1270.2 1617.39 1287.28 1618.71 C 1291.59 1619.04 1295.89 1619.86 1300.2 1619.88 z"/>
<path transform="translate(0,0)" fill="rgb(32,45,56)" d="M 747.727 1533.39 C 750.568 1532.63 754.943 1532.85 757.967 1532.69 C 797.024 1530.67 835.838 1545.53 845.253 1587.09 C 848.147 1599.86 846.792 1611.97 847.189 1624.9 C 848.401 1664.39 847.651 1704.08 848.288 1743.55 C 840.123 1743.91 829.53 1743.43 821.192 1743.29 L 821.031 1711.66 C 788.999 1757.35 703.451 1760.05 676.474 1711.02 C 672.856 1703.4 671.633 1695.83 671.455 1687.47 C 669.775 1608.83 765.722 1623.38 817.908 1623.84 C 813.546 1608.9 819.015 1595.91 813.127 1584.47 C 795.277 1549.79 745.059 1554.01 714.667 1566.37 C 708.396 1568.92 697.724 1576.94 690.966 1580.6 C 686.357 1573.81 681.548 1567.27 678.327 1559.72 C 698.61 1543.42 722.084 1536.54 747.727 1533.39 z M 780.579 1718.74 C 817.398 1704.05 818.458 1680.01 818.148 1645.9 L 763.2 1645.6 C 757.513 1645.58 739.502 1645.31 734.417 1646.12 C 721.854 1649.91 709.778 1655.42 703.1 1667.63 C 698.557 1675.91 697.761 1685.74 700.912 1694.64 C 710.823 1723.25 756.481 1733.06 780.579 1718.74 z"/>
<path transform="translate(0,0)" fill="rgb(32,45,56)" d="M 437.791 1449.16 L 467.044 1449.17 L 467.555 1515.37 C 467.622 1530.66 467.118 1549.65 468.234 1564.63 C 469.243 1563.5 470.268 1562.4 471.31 1561.3 C 504.215 1526.91 570.823 1519.98 606.138 1554.66 C 635.133 1583.14 629.083 1636.08 629.783 1673.09 C 630.223 1696.35 630.147 1720.71 629.927 1744.2 C 619.717 1744.19 609.507 1744.32 599.301 1744.58 C 600.396 1733.38 599.816 1711.69 599.816 1699.94 C 599.868 1671.81 599.761 1643.67 599.496 1615.54 C 596.031 1598.78 594.804 1587.16 581.651 1573.94 C 568.388 1560.68 555.315 1558.91 537.749 1558.03 C 509.302 1556.61 479.217 1574.97 471.15 1602.97 C 465.822 1621.47 467.706 1650.77 467.787 1671.21 L 467.99 1744.58 C 459.978 1743.63 446.292 1743.94 437.823 1743.89 C 438.933 1719.11 437.592 1690.09 437.546 1665 L 437.409 1533 C 437.276 1514.74 435.864 1465.85 437.791 1449.16 z"/>
<path transform="translate(0,0)" fill="rgb(32,45,56)" d="M 298.938 1485.99 C 307.348 1486.46 320.376 1486.18 328.633 1485.73 C 328.684 1501.96 329.299 1518.89 328.388 1534.98 C 349.849 1534.77 371.42 1535.37 392.85 1534.75 C 392.691 1542.98 392.871 1551.79 392.887 1560.08 C 366.581 1559.19 357.958 1562.98 328.95 1559.77 L 328.8 1646.96 C 328.787 1659.93 327.513 1677.94 329.279 1690.36 C 334.732 1728.71 369.918 1725.15 395.106 1711.31 L 396.472 1712.31 C 398.517 1717.86 405.587 1729.33 403.897 1734.21 C 394.529 1742.29 374.046 1745.56 362.219 1746.18 C 314.831 1748.68 296.377 1713.61 298.976 1671.39 C 299.461 1663.52 298.927 1650.37 298.917 1641.9 L 298.958 1559.09 C 286.308 1559.04 273.658 1559.1 261.01 1559.27 C 261.002 1551.13 261.219 1542.99 261.662 1534.85 L 298.764 1534.74 C 298.399 1519.14 298.865 1501.73 298.938 1485.99 z"/>
</svg>